<?xml version="1.0" standalone="no"?>
<!DOCTYPE svg PUBLIC "-//W3C//DTD SVG 20010904//EN"
 "http://www.w3.org/TR/2001/REC-SVG-20010904/DTD/svg10.dtd">
<svg version="1.0" xmlns="http://www.w3.org/2000/svg"
 width="48.000000pt" height="48.000000pt" viewBox="0 0 48.000000 48.000000"
 preserveAspectRatio="xMidYMid meet">

<g transform="translate(0.000000,48.000000) scale(0.100000,-0.100000)"
fill="#000000" stroke="none">
<path d="M161 395 c-81 -25 -131 -98 -131 -190 0 -115 63 -175 182 -175 78 0
142 29 176 79 25 39 22 43 -37 56 -18 4 -57 18 -87 31 l-54 24 26 57 c32 72
45 112 36 117 -22 12 -73 13 -111 1z m99 -15 c0 -5 -20 -10 -45 -10 -79 0
-132 -45 -150 -128 -11 -52 12 -128 48 -158 28 -23 37 -26 98 -22 53 3 75 9
108 32 22 16 41 33 41 39 0 6 -8 3 -18 -6 -24 -22 -32 -21 -32 3 0 11 -7 20
-15 20 -21 0 -19 -38 3 -43 28 -7 -51 -37 -97 -37 -58 0 -93 18 -85 44 4 16 3
18 -5 6 -8 -12 -12 -9 -21 14 -8 21 -7 32 1 42 9 11 8 18 -1 29 -16 20 -5 75
21 109 17 21 24 24 35 15 15 -12 29 -5 29 14 0 7 19 13 45 15 44 3 45 3 22
-13 -15 -11 -21 -23 -17 -35 3 -11 0 -22 -8 -27 -14 -7 -29 -82 -17 -81 19 2
32 -5 49 -23 12 -13 26 -19 36 -15 9 3 32 -1 51 -9 19 -8 34 -11 34 -7 0 3 5
1 12 -6 18 -18 -44 -77 -98 -92 -59 -17 -148 -8 -182 17 -46 33 -64 79 -59
150 6 75 34 126 85 153 39 20 132 27 132 10z"/>
<path d="M124 299 c-7 -12 48 -21 59 -10 13 13 12 13 -26 15 -16 1 -30 -1 -33
-5z"/>
<path d="M95 250 c-8 -14 3 -30 21 -30 8 0 14 9 14 20 0 21 -24 28 -35 10z"/>
<path d="M175 250 c-3 -5 -1 -10 4 -10 6 0 11 5 11 10 0 6 -2 10 -4 10 -3 0
-8 -4 -11 -10z"/>
<path d="M147 185 c-4 -8 -2 -17 4 -21 6 -4 4 -13 -7 -25 -13 -14 -14 -23 -7
-30 16 -16 36 0 30 22 -3 10 -1 22 4 25 5 3 9 14 9 25 0 22 -25 26 -33 4z"/>
<path d="M110 179 c0 -5 5 -7 10 -4 6 3 10 8 10 11 0 2 -4 4 -10 4 -5 0 -10
-5 -10 -11z"/>
<path d="M210 170 c0 -5 5 -10 10 -10 6 0 10 5 10 10 0 6 -4 10 -10 10 -5 0
-10 -4 -10 -10z"/>
<path d="M180 99 c0 -24 23 -21 28 4 2 10 -3 17 -12 17 -10 0 -16 -9 -16 -21z"/>
<path d="M220 104 c0 -9 7 -14 17 -12 25 5 28 28 4 28 -12 0 -21 -6 -21 -16z"/>
<path d="M323 388 c-30 -38 -84 -151 -77 -158 5 -5 46 -22 91 -39 69 -25 82
-28 87 -15 19 51 -11 172 -51 203 -30 24 -37 25 -50 9z m73 -57 c20 -43 31
-151 15 -151 -6 0 -11 15 -11 33 0 45 -19 107 -41 136 -25 31 -24 44 1 29 11
-7 27 -28 36 -47z m-35 -3 c7 -14 7 -24 -2 -35 -11 -12 -9 -18 9 -32 18 -13
20 -19 10 -29 -10 -10 -10 -17 -1 -32 12 -18 11 -18 -25 -3 -47 19 -55 28 -19
19 l29 -7 -22 31 c-21 30 -21 32 -4 44 11 8 15 19 11 30 -9 22 -32 15 -33 -10
-1 -10 -3 -21 -4 -24 -1 -3 -4 -16 -6 -29 -6 -33 -9 -35 -35 -20 l-24 12 23
10 c13 6 22 19 22 33 0 36 11 54 34 55 11 0 15 3 9 6 -7 2 -13 9 -13 15 0 14
28 -10 41 -34z"/>
</g>
</svg>
