<?xml version="1.0" standalone="no"?>
<!DOCTYPE svg PUBLIC "-//W3C//DTD SVG 20010904//EN"
 "http://www.w3.org/TR/2001/REC-SVG-20010904/DTD/svg10.dtd">
<svg version="1.0" xmlns="http://www.w3.org/2000/svg"
 width="94.000000pt" height="94.000000pt" viewBox="0 0 94.000000 94.000000"
 preserveAspectRatio="xMidYMid meet">

<g transform="translate(0.000000,94.000000) scale(0.100000,-0.100000)"
fill="#000000" stroke="none">
<path d="M337 753 c-3 -4 -8 -39 -12 -78 -4 -38 -16 -87 -26 -107 -11 -21 -19
-44 -19 -51 0 -8 -11 -39 -24 -68 -22 -51 -38 -136 -52 -271 -4 -46 -9 -58
-23 -58 -9 0 -22 5 -29 12 -6 6 -15 8 -19 4 -5 -4 5 -19 20 -32 38 -33 131
-34 171 -3 25 19 38 20 224 19 202 -1 243 5 268 38 10 13 13 81 14 288 l0 271
-24 22 -25 23 -206 -12 c-154 -9 -209 -9 -220 0 -7 6 -15 7 -18 3z m409 -77
c3 -8 0 -27 -8 -43 -13 -28 -14 -28 -142 -37 -82 -6 -134 -6 -144 1 -29 18
-37 40 -24 67 l12 26 150 0 c122 0 152 -3 156 -14z m-228 -174 c4 -40 -12 -62
-43 -62 -44 0 -55 10 -55 49 0 48 5 53 55 49 37 -3 40 -5 43 -36z m117 -12 c0
-40 -3 -45 -24 -48 -12 -2 -34 -1 -47 2 -20 5 -24 13 -24 45 0 48 5 53 55 49
l40 -3 0 -45z m123 37 c6 -7 8 -27 3 -47 -6 -33 -9 -35 -46 -35 -36 0 -40 3
-49 32 -6 23 -5 37 4 48 15 18 73 20 88 2z m-250 -119 c7 -7 12 -26 12 -43 0
-38 -16 -55 -50 -55 -14 0 -31 5 -38 12 -16 16 -15 85 1 91 23 10 63 7 75 -5z
m116 6 c22 -9 22 -89 0 -98 -25 -10 -59 -7 -72 6 -16 16 -15 85 1 91 18 8 53
8 71 1z m128 -8 c21 -20 11 -84 -14 -92 -37 -12 -65 3 -71 38 -2 18 0 41 5 51
11 21 61 23 80 3z m-244 -128 c16 -16 15 -63 -2 -77 -8 -7 -30 -11 -48 -9 -29
3 -33 7 -36 36 -2 19 -1 40 2 48 7 17 67 19 84 2z m127 -38 l0 -45 -45 0 c-44
0 -45 1 -48 33 -5 54 2 64 50 60 l43 -3 0 -45z m123 33 c5 -10 6 -31 3 -48 -6
-27 -10 -30 -46 -30 -38 0 -40 2 -43 33 -5 50 3 62 42 62 24 0 38 -6 44 -17z"/>
</g>
</svg>
